<?xml version="1.0" encoding="UTF-8"?> <svg xmlns="http://www.w3.org/2000/svg" id="Layer_1" width="485" height="400" viewBox="0 0 485 400"><defs><style>.cls-1{fill:#03ceb7;}.cls-2{fill:#002846;}.cls-3{fill:#faf8f6;}.cls-4{fill:#febad4;}.cls-5{fill:#19a894;}</style></defs><path class="cls-2" d="m444.8555,360.9405l-387.2965.9546c-3.6791,0-7.3458-2.7968-7.8136-6.4963L16.1681,90.4501c-.8156-6.4495,4.1201-12.8634,10.4603-12.7018l382.4216,2.2213,35.8054,280.9709Z"></path><g><path class="cls-3" d="m43.1333,78.6788c-7.231,0-13.7605,7.4175-12.8351,14.6929l33.1586,261.9591c.4705,3.6994,4.3835,6.8295,8.0603,6.8295l379.8567-.6785c4.4101,0,7.356-3.7031,6.7917-8.1402l-34.3381-266.816c-.4705-3.6994-2.8877-7.8468-6.5645-7.8468H43.1333Z"></path><path class="cls-2" d="m71.518,362.7669c-4.1166,0-8.1634-3.439-8.6622-7.3596L29.6973,93.448c-.4638-3.6459.8218-7.5007,3.5262-10.5756,2.6831-3.0507,6.295-4.8002,9.91-4.8002h374.1291c3.9628,0,6.6494,4.316,7.1659,8.377l34.3382,266.815c.3041,2.3943-.3585,4.7192-1.8193,6.3795-1.3862,1.5766-3.3658,2.4449-5.5739,2.4449l-379.8555.6785ZM43.1334,79.2854c-3.267,0-6.5477,1.5997-9.0006,4.3888-2.4748,2.8136-3.6534,6.3201-3.2333,9.6209l33.1585,261.9594c.4189,3.2967,3.974,6.2992,7.4588,6.2992l379.8555-.6785c1.856,0,3.5126-.7222,4.6657-2.0335,1.2306-1.399,1.7868-3.3756,1.5265-5.4233l-34.3382-266.8151c-.4508-3.548-2.6943-7.3179-5.9637-7.3179H43.1334Z"></path></g><path class="cls-3" d="m130.2556,314.5525l346.2721-.6179c4.4101,0,7.356-3.7031,6.7917-8.1402l-34.3381-266.816c-.4705-3.6993-2.8877-7.8468-6.5645-7.8468H64.6667c-7.231,0-13.7605,7.4175-12.8351,14.6929l33.1586,261.9591c.4705,3.6994,4.3835,6.8295,8.0603,6.8295l37.2052-.0606Z"></path><path class="cls-2" d="m272.3699,31.2584l-42.3616-.0212c-.3349-.0002-.6058-.2719-.6058-.6069s.2716-.6064.6058-.6064l42.3616.0212c.3349.0002.6058.2719.6058.6069s-.2716.6064-.6058.6064Z"></path><path class="cls-2" d="m392.4538,31.2764l-51.624-.0391c-.3349-.0002-.6058-.2719-.6058-.607s.2716-.6063.6058-.6063l51.624.0391c.3349.0002.6058.2719.6058.607s-.2716.6063-.6058.6063Z"></path><path class="cls-2" d="m477.808,261.108c-.3006,0-.5615-.2235-.6005-.5298l-20.3471-159.5006c-.042-.3323.1923-.6361.5242-.6786.3343-.0412.636.1927.678.5249l20.3471,159.5006c.042.3323-.1923.6361-.5242.6786-.026.0032-.0521.0049-.0775.0049Z"></path><path class="cls-2" d="m80.7854,273.067c-.3006,0-.5615-.2239-.6005-.5304l-7.4813-59.1012c-.042-.3323.1929-.6359.5248-.678.3355-.0425.6354.1931.6774.5255l7.4813,59.1012c.042.3324-.1929.636-.5248.678-.026.0034-.0515.0049-.0769.0049Z"></path><path class="cls-2" d="m70.6246,195.6364c-.3012,0-.5627-.2247-.6005-.5318L51.4389,45.4369c-.4638-3.6445.8218-7.4993,3.5262-10.5742,2.6831-3.0506,6.295-4.8002,9.91-4.8002l71.6345-.0384c.3343,0,.6058.2712.6064.606.0006.335-.2704.607-.6052.6073l-71.6351.0384c-3.2676,0-6.5483,1.5997-9.0012,4.3888-2.4748,2.8135-3.6534,6.3202-3.2333,9.621l18.5852,149.6694c.0414.3324-.194.6355-.5266.6768-.0254.0031-.0503.0046-.0751.0046Z"></path><g><g><path class="cls-1" d="m133.7461,326.5326c14.6298,9.6705,24.8394,15.7726,21.2044,35.1851h150.1477c23.2745-74.6166,3.8841-207.8227-33.8022-229.2966-27.6734-15.7687-63.2922-1.4393-81.1438,5.7424-12.9321,5.2028-81.523,32.7974-84.512,92.8014-1.7876,35.8825,2.7976,78.8382,28.1059,95.5678Z"></path><path class="cls-2" d="m305.0982,362.3243h-150.1477c-.1804,0-.3508-.0803-.4662-.2192-.1154-.1389-.1627-.3218-.129-.4993,3.4581-18.4681-5.7608-24.5499-19.7147-33.756l-1.2283-.811c-11.637-7.6923-19.8697-21.476-24.4696-40.9684-3.5942-15.2308-4.9455-34.2966-3.9078-55.1358,1.2702-25.4966,14.31-48.1724,38.7578-67.3976,19.2059-15.103,39.4731-23.2568,46.1332-25.9363,17.4451-7.0181,53.744-21.6201,81.6695-5.7068,37.7893,21.5326,57.5371,154.8062,34.0809,230.0046-.0787.2532-.313.4258-.578.4258Zm-149.423-1.2133h148.9769c10.8075-34.993,12.98-84.9928,5.8058-133.8819-3.3848-23.0686-8.6652-43.8806-15.2696-60.1861-6.9974-17.2738-15.3625-29.0636-24.1916-34.0947-27.4178-15.6232-63.3487-1.1692-80.6175,5.7774-30.3133,12.1956-81.55,40.3987-84.1337,92.2692-1.3803,27.7072.4005,76.8965,27.8343,95.0314l1.2277.8104c13.6698,9.0187,23.5946,15.5648,20.3678,34.2742Z"></path></g><g><g><g><path class="cls-3" d="m265.4706,262.289l9.158-13.5513c2.5856-3.8264,6.3743-6.6774,10.764-8.0999l48.038-15.5682s3.3142,7.4825-8.4572,12.2243l-15.5608,5.563s5.1538,13.2662-1.1011,22.2266c-10.2125,14.6298-33.1247,10.8436-33.1247,10.8436l-9.7162-13.638Z"></path><path class="cls-2" d="m281.6107,276.949c-3.8332,0-6.4453-.4107-6.5229-.4236-.1586-.0262-.3005-.1148-.3946-.2461l-9.7159-13.638c-.1467-.2063-.1503-.4824-.0083-.6924l9.158-13.5513c2.6482-3.9189,6.5826-6.8798,11.0791-8.3371l48.0383-15.5681c.2929-.0952.6141.0471.7402.3312.0473.1065,1.1407,2.6432-.1248,5.7653-1.2141,2.9968-4.1279,5.442-8.6605,7.2677l-15.0099,5.3666c.9372,2.7216,4.3066,14.0598-1.3815,22.2079-6.8831,9.861-19.5005,11.518-27.1971,11.518Zm-6.0809-1.5849c2.4772.3421,22.9704,2.7149,32.2852-10.6283,5.9998-8.5954,1.0833-21.5296,1.033-21.6592-.0598-.1527-.0544-.3229.0136-.472.0675-.149.1929-.2642.3473-.3193l15.5607-5.563c4.193-1.6896,6.8814-3.9095,7.9676-6.5896.7614-1.8802.5177-3.5067.3082-4.3007l-47.4667,15.3828c-4.2403,1.3744-7.951,4.1668-10.4484,7.8628l-8.9219,13.2022,9.3213,13.0843Z"></path></g><path class="cls-1" d="m265.4706,252.0224l14.6629,34.032s-37.0866,51.1039-91.1499,58.9817c-54.0632,7.878-91.7492-33.1056-93.7397-68.6687-2.5676-45.8732,21.8514-82.0038,21.8514-82.0038l45.6369,48.5318s-6.8617,30.4864,24.8794,41.2914c31.7412,10.8052,77.8591-32.1644,77.8591-32.1644Z"></path><path class="cls-2" d="m175.7674,346.6108c-19.5821.0003-38.023-6.4263-52.9595-18.6493-16.5914-13.5765-27.122-32.8513-28.1686-51.5601-2.55-45.5481,22.1522-83.2797,22.4025-83.6556.1852-.2789.5615-.3544.8395-.1688.2787.1856.3544.5622.1686.8411-.2473.3726-24.7276,37.7819-22.2013,82.9155,1.0288,18.3746,11.3932,37.3237,27.726,50.6885,18.016,14.7424,41.2149,20.9261,65.3219,17.4138,27.7834-4.0485,50.9769-19.8024,65.5414-32.3053,14.507-12.4537,23.5526-24.2244,25.0009-26.157l-14.1887-32.9315c-2.6275,2.3608-13.154,11.5498-26.4925,19.6334-14.2491,8.6357-34.7234,17.7424-51.3414,12.0857-.3165-.1078-.4863-.4525-.378-.7696.1071-.317.449-.4876.7685-.3792,31.0392,10.5667,76.7932-31.607,77.2511-32.0343.145-.1342.3449-.19.5378-.1494.1923.0404.3532.1722.4313.3532l14.6626,34.032c.0846.1968.0598.4237-.0663.597-.0929.1283-9.497,12.9915-25.3968,26.6406-14.6857,12.6074-38.0845,28.4945-66.1561,32.5848-4.4734.652-8.9172.9744-13.303.9744Z"></path></g><g><path class="cls-2" d="m192.9922,84.3852c15.0785-12.985,18.5181-14.7543,22.9073-22.1931,3.5783-6.0667,11.5726-19.6179,6.1643-33.9403-4.6775-12.3857-17.5887-19.867-29.467-20.5073-10.6654-.5755-18.458,4.4772-22.5733,7.1454-1.7987,1.1671-17.6659,11.7662-20.8001,29.0815-.8504,4.7027-.2126,6.8601-2.3546,9.8059-4.8207,6.6312-13.546,3.2486-19.5825,8.7507-7.5928,6.92-4.0713,21.6397-3.7815,22.7878,3.9611,15.7037,20.9105,26.1135,34.7209,24.6626,7.9739-.8373,7.1171-1.7835,34.7665-25.5931Z"></path><g><g><path class="cls-3" d="m146.3719,166.29c1.442-4.1025,3.6577-7.5775,5.6178-10.1234,2.9639-3.8492,4.9713-8.3488,5.9801-13.103l5.9809-28.1772c-.8863-.8683-1.3722-1.4052-1.3722-1.4052,0,0-11.8713-3.1293-10.8983-9.5784.9727-6.449,9.8527-3.5904,9.8527-3.5904,0,0,4.0174-1.1809,1.0456-7.3544-3.1368-6.5169-3.6895-15.6948-3.6895-15.6948,0,0,2.8939-3.0467,14.1454-2.5198,10.7603.5038,29.5852,5.2002,31.3676-5.2348,5.4402,10.9821,6.9024,20.4259,7.3232,26.2861.6215,8.6577-.7372,13.5704-1.0694,14.7165-.978,3.3752-4.1829,14.4348-13.4816,17.5248-3.3209,1.1037-6.3827.8464-8.3491.4903l-.5731,4.5543c-.3228,2.5656,2.0721,4.6303,4.558,3.9294l11.3191-3.1912s-1.2984,19.531-15.2812,29.1339c-13.9831,9.6025-45.0314,10.6048-42.476,3.3371Z"></path><path class="cls-2" d="m158.1968,171.6765c-5.1792.0002-9.3722-.7547-11.2873-2.2251-1.1809-.9061-1.5643-2.069-1.1093-3.3627l.5715.2014-.5715-.2014c1.2353-3.5128,3.1564-6.9756,5.7099-10.2924,2.8345-3.6815,4.8633-8.128,5.8667-12.8586l5.9123-27.8521c-.5141-.5099-.8656-.8802-1.0377-1.065-1.5572-.4374-12.157-3.6664-11.1708-10.2083.2568-1.7017,1.0419-2.9711,2.3328-3.7725,2.802-1.739,7.092-.6574,8.096-.3677.2893-.1305.9336-.5018,1.2945-1.3356.5242-1.2091.2574-2.9778-.7709-5.1147-3.1529-6.5494-3.7262-15.5422-3.7487-15.9218-.01-.168.0497-.3326.1657-.4545.126-.1326,3.2162-3.2412,14.6129-2.7077,2.169.1015,4.6391.3694,7.2547.6531,10.3863,1.1264,22.1569,2.4028,23.4869-5.3841.0438-.2589.2497-.4599.5088-.4979.2621-.0384.5147.0955.6307.3306,4.2539,8.5863,6.7388,17.5063,7.3849,26.5121.5591,7.7807-.4437,12.6932-1.0916,14.929-2.834,9.7815-7.5014,15.8145-13.8722,17.9315-2.5003.8309-5.1952,1.0372-8.0179.6158l-.494,3.9289c-.1284,1.0175.2438,1.9849,1.0194,2.654.7768.6694,1.7897.8935,2.773.6157l11.3187-3.1912c.1905-.0532.3929-.0114.5461.1129.1526.1241.236.3147.223.5114-.0136.1983-1.4803,19.9364-15.543,29.5939-8.109,5.5688-21.2831,8.2231-30.9937,8.2232Zm-.817-71.3892c-1.1608,0-2.3731.1903-3.3298.7848-.988.614-1.5672,1.5696-1.7708,2.9214-.8804,5.8362,10.3401,8.8712,10.4537,8.9011.1136.0299.216.0923.2946.1792.0047.0053.4863.5363,1.3466,1.379.1485.1453.2124.3565.1692.5598l-5.9809,28.1772c-1.0413,4.9072-3.1481,9.5227-6.0927,13.3472-2.4748,3.2145-4.3344,6.5636-5.5265,9.9544-.2751.7829-.052,1.4174.7035,1.9971,5.1331,3.9411,29.0247,2.0911,40.8587-6.0359,11.9251-8.1898,14.4774-23.952,14.9318-27.8084l-10.4626,2.95c-1.3661.3842-2.8192.0613-3.8924-.8642-1.0732-.9255-1.6081-2.3181-1.4312-3.7251l.5727-4.5542c.0207-.1651.1083-.3146.2426-.4132.1343-.0986.3041-.1371.4662-.108,2.8529.5167,5.5614.3581,8.0505-.4691,8.9971-2.9898,12.0783-13.6237,13.0912-17.1181.6248-2.1579,1.5915-6.9116,1.0466-14.5039-.5993-8.3424-2.8056-16.6141-6.5625-24.6101-2.7571,7.1127-14.6709,5.8207-24.3715,4.7686-2.5961-.2815-5.0485-.5476-7.1807-.6474-9.2272-.4319-12.6889,1.5919-13.49,2.1807.129,1.6321.8762,9.4895,3.6078,15.1646,1.2117,2.5169,1.4738,4.5882.778,6.156-.7052,1.5887-2.1382,2.0259-2.1991,2.0437-.1165.0344-.2402.0324-.3556-.0045-.0296-.0095-1.9175-.6028-3.9675-.6028Z"></path></g><path class="cls-2" d="m188.8255,129.1328c-.0183,0-.0367-.0007-.055-.0025-15.7015-1.4181-19.7833-11.03-19.9489-11.4385-.1266-.3103.0225-.6642.3325-.7906.307-.126.662.0222.7892.3323.0467.1132,4.0273,9.3419,18.936,10.6885.3331.0301.5792.3249.5491.6586-.0284.3151-.2929.5521-.6029.5521Z"></path></g></g></g></g><g><path class="cls-3" d="m477.5755,329.4826l-16.9937-.5146c-2.0943-.0634-4.0328,1.1002-4.9635,2.9794l-4.7285,9.5477-5.2211-10.1972c-.8923-1.7428-2.6604-2.862-4.6146-2.9212l-15.6289-.4733c-2.961-.0897-5.2908-2.5663-5.2035-5.5316l.9771-33.2221c.0872-2.9653,2.5583-5.2965,5.5193-5.2068l52.1503,1.5793c2.961.0897,5.2908,2.5662,5.2035,5.5316l-.977,33.222c-.0872,2.9653-2.5583,5.2965-5.5194,5.2068Z"></path><path class="cls-2" d="m450.8897,342.1017c-.2272,0-.4354-.1272-.539-.3298l-5.2212-10.1972c-.7916-1.5461-2.3601-2.5391-4.0936-2.5917l-15.6294-.4733c-3.2895-.0995-5.8874-2.8609-5.791-6.1557l.9774-33.2222c.0473-1.5961.7117-3.0779,1.8725-4.1726,1.1602-1.0948,2.6718-1.6726,4.271-1.6227l52.1502,1.5792c3.2895.0997,5.8874,2.8611,5.791,6.1557l-.9768,33.2222c-.0473,1.5963-.7124,3.0781-1.8725,4.1727-1.1602,1.0945-2.6902,1.6712-4.2711,1.6226l-16.9937-.5146c-1.8465-.0547-3.58.9809-4.403,2.6426l-4.7284,9.5476c-.1012.2051-.31.3356-.5384.3371h-.0042Zm-24.3371-57.5547c-1.2164,0-2.3677.4568-3.2564,1.2952-.9247.8723-1.4542,2.0532-1.4915,3.3253l-.9774,33.2222c-.0775,2.6265,1.9932,4.8279,4.616,4.9073l15.6294.4733c2.1749.0659,4.1421,1.3116,5.1348,3.2508l4.6734,9.1267,4.1947-8.4698c1.0324-2.0849,3.2037-3.3844,5.5247-3.3162l16.9937.5147c1.2643.0375,2.4784-.4206,3.4037-1.2931.9241-.8722,1.4542-2.0532,1.4915-3.3254l.9768-33.2221c.0775-2.6263-1.9938-4.8278-4.616-4.9073l-52.1502-1.5793c-.0491-.0015-.0988-.0022-.1473-.0022Z"></path></g><g><path class="cls-3" d="m386.5101,219.2567c-20.5217,2.5243-35.6133,17.16-33.708,32.6897.8525,6.949,4.9652,12.898,11.0866,17.1261l-4.5152,16.187,16.7695-10.7534c5.3081,1.3371,11.1843,1.737,17.2665.9889,20.5217-2.5243,35.6133-17.16,33.7081-32.6897-1.9052-15.5298-20.0858-26.0728-40.6075-23.5486Z"></path><path class="cls-2" d="m359.3737,285.8662c-.1266,0-.2532-.0398-.3603-.1189-.2018-.1496-.2911-.4085-.2231-.6509l4.3994-15.773c-6.2684-4.4538-10.165-10.5833-10.9891-17.303-1.9429-15.8369,13.4149-30.8047,34.2353-33.3657,20.824-2.5612,39.3399,8.24,41.2829,24.0767,1.9429,15.8369-13.4149,30.8047-34.2353,33.3657-5.9312.7297-11.7269.4134-17.2333-.9393l-16.55,10.6126c-.0994.064-.213.0958-.3266.0958Zm27.2101-66.0075c-20.1572,2.4796-35.0423,16.8409-33.181,32.0138.7975,6.4963,4.6432,12.4275,10.8294,16.7006.213.1471.3094.4132.2396.6626l-4.0877,14.6553,15.4323-9.8958c.1408-.0905.3124-.1182.4745-.0775,5.436,1.3692,11.1702,1.6976,17.0446.9751,20.1572-2.4796,35.0423-16.8409,33.181-32.0138-1.8613-15.1726-19.775-25.4994-39.9328-23.0204Z"></path></g><g><g><ellipse class="cls-3" cx="306.6491" cy="30.0238" rx="29.2216" ry="29.2602"></ellipse><path class="cls-2" d="m306.5915,60.048c-5.5622,0-11.0246-1.5595-15.8555-4.5895-6.7848-4.2564-11.5085-10.9038-13.3001-18.7167-1.7924-7.8136-.4384-15.858,3.8124-22.6518,4.2508-6.7938,10.8887-11.5237,18.692-13.3177,7.8026-1.794,15.8371-.4389,22.6219,3.8167,14.0051,8.7863,18.2618,27.3442,9.4877,41.3685-4.2508,6.7937-10.8887,11.5237-18.692,13.3177-2.2477.5169-4.5159.7727-6.7665.7727Zm.1123-58.5418c-2.1382,0-4.2919.2426-6.4272.7338-7.4119,1.7043-13.7165,6.1967-17.7536,12.6501-4.0378,6.4526-5.3236,14.0934-3.6215,21.5143,1.7021,7.4217,6.1886,13.7353,12.6334,17.7777,6.4441,4.0424,14.0748,5.3306,21.4867,3.6256,7.4119-1.7043,13.7165-6.1967,17.7536-12.6501,8.3342-13.3199,4.2912-30.9469-9.0119-39.2921-4.5871-2.8778-9.7763-4.3593-15.0595-4.3593Zm-24.8182,12.9839h.0073-.0073Z"></path></g><path class="cls-2" d="m312.8991,49.4015c-.8268,0-1.6624-.2243-2.4129-.6948l-22.1637-13.9029c-1.0317-.647-1.7505-1.658-2.0229-2.8469-.2724-1.1882-.0661-2.4117.5801-3.4454l9.2307-14.7544c.6469-1.033,1.6558-1.7521,2.8432-2.0249,1.1859-.2728,2.4077-.0669,3.4401.5801l22.1637,13.9037c1.0317.647,1.7505,1.658,2.0229,2.8469.2724,1.1882.0661,2.4109-.5801,3.4447l-9.2307,14.7544c-.8643,1.3808-2.3519,2.1396-3.8704,2.1396Zm-12.9198-36.2805c-.2291,0-.4604.0257-.6895.0787-.7952.1831-1.4715.6647-1.9047,1.3573l-9.2307,14.7544c-.8944,1.4293-.4604,3.3212.9671,4.216l22.1637,13.9029c.691.4338,1.5097.5742,2.3049.3889.7952-.1831,1.4715-.6647,1.9047-1.3573l9.2307-14.7544c.4332-.6919.5713-1.5117.3892-2.308-.1828-.7963-.6645-1.4734-1.3562-1.9072l-22.1637-13.9037c-.492-.3088-1.0486-.4676-1.6154-.4676Z"></path><path class="cls-2" d="m305.9608,32.2744c-.2849,0-.5573-.1625-.6837-.4382l-5.4146-11.7972c-.174-.3779-.0081-.8249.3686-.9985.3789-.1757.8246-.0081.9971.3691l5.4147,11.7972c.174.3779.0081.825-.3686.9985-.1021.0471-.2085.0691-.3135.0691Z"></path><path class="cls-2" d="m306.0239,32.3141c-.4083,0-.7431-.3272-.7519-.7375-.0081-.4154.3209-.7595.7365-.7683l12.9639-.2684h.0154c.4083,0,.7431.3272.7519.7375.0081.4154-.3209.7595-.7365.7683l-12.9639.2683h-.0154Z"></path></g><g><g><ellipse class="cls-3" cx="393.1705" cy="84.7599" rx="29.2744" ry="29.313"></ellipse><path class="cls-2" d="m393.1703,114.8257c-16.556,0-30.0258-13.4876-30.0258-30.0661s13.4698-30.0654,30.0258-30.0654,30.0265,13.4876,30.0265,30.0654-13.4698,30.0661-30.0265,30.0661Zm0-58.6256c-15.727,0-28.522,12.8118-28.522,28.5596s12.795,28.5603,28.522,28.5603,28.5227-12.8118,28.5227-28.5603-12.795-28.5596-28.5227-28.5596Z"></path></g><path class="cls-2" d="m393.3326,99.5052c-.2891.1793-.6539.1879-.9507.0218-2.5798-1.4438-14.5487-8.6643-14.0803-18.1094.495-9.9819,11.3131-8.2508,13.9842-3.338.1013.1862.3003.2977.5118.2867.2115-.011.398-.1425.4793-.3383,1.3094-3.1546,5.5421-5.4402,9.5283-3.942,4.7526,1.7862,9.5835,13.5938-9.4725,25.4192Z"></path></g><ellipse class="cls-4" cx="361.657" cy="159.4774" rx="28.9607" ry="28.7715" transform="translate(72.7093 429.1773) rotate(-66.8224)"></ellipse><path class="cls-2" d="m361.5098,189.1777c-4.0959.0007-8.1778-.8661-12.0225-2.5933-7.1901-3.2307-12.6863-9.0856-15.4751-16.4867-5.759-15.2823,1.9547-32.4806,17.1948-38.3385,7.3877-2.8388,15.4208-2.6227,22.6198.611,7.1901,3.23,12.6863,9.0856,15.4751,16.4859,5.759,15.283-1.9547,32.4814-17.1948,38.3392-3.4424,1.3227-7.0249,1.9823-10.5973,1.9823Zm.2945-57.8941c-3.391,0-6.7907.6257-10.0583,1.8815-14.4706,5.5615-21.7944,21.8908-16.3269,36.4003v.0007c2.6464,7.0232,7.8613,12.5795,14.6843,15.644,6.8304,3.0697,14.453,3.2741,21.4647.5794,14.4706-5.5615,21.7944-21.8915,16.3269-36.4018-2.6464-7.0232-7.8613-12.5788-14.6843-15.6433-3.6472-1.6389-7.5213-2.4609-11.4064-2.4609Z"></path><path class="cls-2" d="m376.4325,166.7908l-4.9316-3.5443c-.6617-.4513-1.9836-.5472-3.4275.441-1.3569.9287-3.5389,2.389-8.4858-2.4994-4.9449-4.8851-3.7242-7.2504-2.6278-8.4786.1659-.1858,1.3543-1.9689.3833-3.4512l-2.8069-3.806c-2.3228-2.9214-4.7123-.1432-4.8519.0129-3.9249,4.3927-1.5393,12.9341,5.6663,20.051,7.206,7.1188,15.748,9.3747,20.0547,5.3588.1532-.1429,2.7218-2.7549,1.0272-4.0841Z"></path><g><path class="cls-5" d="m15.0421,291.0236c5.6892,1.9589,9.7784,15.3155,12.4452,20.48.06.1161.1193.2297.1783.3408.7379,1.3925,2.7966,1.1118,3.1409-.4265,1.417-6.3309,2.0153-12.7003-3.8526-17.723-9.7784-8.3701-11.5563-16.0279-11.0229-24.9322.3408-5.6889-1.81-10.239-3.4078-12.7833-1.747-2.782-3.2397-5.7193-4.5224-8.7444-23.5232-55.4741,14.1691-39.7223,17.5308-26.3778,2.4002,9.5277-1.2446,15.3155,7.0523,21.9641,10.525,8.4342,11.3785,17.4526,11.1414,21.608-.237,4.1553-3.9114,10.3291,4.2669,18.4023,8.1783,8.0733,8.4154,17.3339,5.3337,26.7131-3.0816,9.3792,2.7261,16.7402,5.9263,20.5394.0054.0064.0108.0128.0161.0192.6066.7297,1.755.5496,2.0786-.343,1.432-3.9488,4.4532-5.6457,6.5577-6.5622,2.7261-1.1872,5.6893-6.5299,7.9413-14.0095,2.252-7.4797,17.0677-14.247,22.8754-11.0414,5.8078,3.2056,9.245,17.0964,4.504,24.1011-4.7411,7.0048-28.5648,13.5347-27.3795,23.745,1.1852,10.2103-16.3566,16.2653-16.3566,16.2653,0,0-1.4499-.1956-2.9301-1.4793-4.6097,2.7617-11.4908,5.4671-15.3822.2326-.578-.7775-1.1576-1.6521-1.7334-2.6061-1.611-.0956-4.0453-.9953-7.6894-3.2707-13.6897-8.5482-10.134-15.6717-12.2674-21.7267-2.1334-6.055-11.3785-15.3155-11.3785-15.3155-12.0897-19.0553,1.2445-29.0282,6.9337-27.0692Z"></path><g><path class="cls-2" d="m48.2843,355.1672c-.0034,0-.0075,0-.0109-.0002-.3863-.0062-.6941-.3244-.6879-.7108,1.0953-68.2749-34.5393-129.7815-34.8996-130.3948-.1952-.3331-.0839-.7619.2484-.9579.333-.1958.7616-.0844.9568.2486.3617.6166,36.1935,62.4491,35.0921,131.1267-.0061.3825-.318.6885-.6988.6885Z"></path><path class="cls-2" d="m62.1727,356.2802c-.0396,0-.0798-.0034-.1208-.0106-.3801-.0663-.6347-.4286-.5684-.8094,5.2691-30.2811,36.1116-50.0758,36.4228-50.2721.3255-.206.7575-.1083.9636.2183.2061.3268.1085.7589-.2184.9652-.3051.1932-30.6303,19.6676-35.7909,49.3287-.0594.3402-.3542.5798-.6879.5798Z"></path><path class="cls-2" d="m40.7842,354.3326c-.3064,0-.5876-.2035-.6729-.5137-5.7305-20.7751-21.9482-43.2297-22.1113-43.454-.2273-.3125-.1583-.7502.1535-.9775.3126-.2276.7487-.1587.9766.1537.1644.2263,16.5295,22.8815,22.3283,43.9054.1031.3724-.1153.7578-.4873.8607-.0628.0173-.1249.0255-.187.0255Z"></path><path class="cls-2" d="m44.612,312.7859c-.185,0-.3699-.0735-.5077-.2188-5.2944-5.6045-8.4665-13.7717-8.5988-14.1166-.1385-.3606.0416-.7655.4013-.9043.3603-.1389.7643.0413.9036.4018.0314.082,3.2089,8.2579,8.3095,13.6572.2655.2809.2532.7237-.0273.9893-.1351.1279-.3078.1913-.4804.1913Z"></path><path class="cls-2" d="m45.7224,321.6887c-.1303,0-.2614-.0362-.3788-.1123-6.6566-4.314-9.2594-11.6394-9.3666-11.9492-.1269-.3649.0655-.7631.43-.8902.3651-.127.7623.0652.8899.4301.0246.0714,2.5633,7.1885,8.8056,11.2342.3242.2101.417.6433.2075.9678-.1338.2069-.3583.3195-.5876.3195Z"></path><path class="cls-2" d="m36.465,342.5859c-.0799,0-.1611-.0137-.2402-.0429-5.2064-1.9079-12.9276-12.7636-13.2538-13.2248-.2231-.3153-.1481-.752.1665-.9755.316-.2238.7514-.1483.9745.1667.0771.1093,7.7935,10.9605,12.5932,12.7193.3624.1329.5487.5347.4163.8978-.1037.2836-.3719.4594-.6565.4594Z"></path><path class="cls-2" d="m84.3912,317.6082c-.3481,0-.6497-.2599-.6927-.6143-.9889-8.0515,3.9486-13.7411,4.1588-13.9794.2566-.2891.6981-.3161.9855-.0603.2894.2556.3167.6975.0621.9873-.0478.054-4.7293,5.4729-3.8196,12.8816.0471.3835-.2252.7327-.6081.7799-.0287.0036-.058.0053-.086.0053Z"></path><path class="cls-2" d="m69.4858,336.9907c-.2737,0-.5337-.1625-.6456-.4317-.1481-.357.0211-.7664.378-.9145,8.3136-3.4543,17.1874-10.8714,17.2762-10.9458.2955-.2489.737-.2096.9841.0861.2484.2959.2102.7372-.086.9857-.3685.3099-9.1236,7.6285-17.6392,11.1665-.0873.0364-.1781.0536-.2675.0536Z"></path><path class="cls-2" d="m33.7693,270.4717c-.0901,0-.1815-.0174-.2695-.0544-.3562-.1491-.5241-.5591-.3754-.9157,2.9045-6.9512.9343-16.1717.9138-16.264-.0826-.3774.1556-.7507.5323-.8337.3753-.0832.75.1553.8326.5328.0867.3943,2.0883,9.7394-.9889,17.105-.1126.2682-.3719.4298-.6449.4298Z"></path></g></g><g><path class="cls-2" d="m144.4231,394.8351c-.2607,0-.5112-.1466-.6313-.3977l-1.6324-3.4142c-.1665-.3487-.0191-.7665.329-.9333.346-.1679.7657-.0196.9322.3289l1.6324,3.4142c.1665.3487.0191.7665-.329.9333-.0969.0468-.1999.0689-.3009.0689Z"></path><path class="cls-2" d="m138.709,382.8854c-.2607,0-.5111-.1466-.6313-.3977l-1.6324-3.4142c-.1665-.3487-.0191-.7666.3289-.9333.3467-.1678.7657-.0196.9322.3289l1.6324,3.4142c.1665.3487.0191.7666-.3289.9333-.0969.0468-.1999.0688-.301.0688Z"></path><path class="cls-2" d="m145.0134,385.1132c-.2607,0-.5112-.1469-.6313-.3982-.1665-.3487-.0191-.7665.3296-.9331l3.4109-1.6318c.346-.1666.7643-.0191.9315.3297.1665.3487.0191.7665-.3296.9331l-3.4109,1.6318c-.0969.0465-.1993.0685-.3003.0685Z"></path><path class="cls-2" d="m133.0747,390.8248c-.2607,0-.5111-.1469-.6313-.3982-.1665-.3487-.0191-.7666.3296-.9331l3.4108-1.6318c.3467-.1666.7643-.0191.9315.3297.1665.3487.0191.7666-.3296.9331l-3.4109,1.6318c-.0969.0465-.1993.0685-.3003.0685Z"></path></g><path class="cls-2" d="m111.1765,383.1895c-1.1042,0-2.2227-.288-3.2389-.8936-3.0082-1.7931-3.9998-5.7008-2.2104-8.7111.8667-1.4583,2.2493-2.491,3.8933-2.9078,1.644-.4172,3.3508-.1679,4.8078.7004,1.457.8686,2.4902,2.253,2.9079,3.8982.4177,1.6455.1699,3.3549-.6968,4.8131-1.1848,1.9933-3.2976,3.1009-5.463,3.1009Zm.0109-11.3097c-.4074,0-.8183.0507-1.2243.1537-1.281.3249-2.3592,1.1301-3.0348,2.267-1.3956,2.3471-.6217,5.3943,1.7245,6.7926,2.3456,1.3983,5.3907.6268,6.7856-1.7203.6756-1.1369.8688-2.4696.5432-3.7524-.3262-1.2831-1.1315-2.363-2.2684-3.0404-.7766-.4632-1.6447-.7003-2.5257-.7003Z"></path><path class="cls-2" d="m47.2121,364.6172c-2.7327,0-4.9612-1.0723-6.5558-3.2178-.5208-.6992-1.0562-1.4971-1.5956-2.374-1.8959-.2168-4.4043-1.3125-7.6501-3.3389-10.4862-6.5479-11.1152-12.3076-11.6702-17.3896-.1795-1.6504-.3501-3.208-.866-4.6729-2.0598-5.8447-11.1338-14.9805-11.2254-15.0713l-.0888-.1113c-8.3952-13.2334-4.1898-21.1494-1.9915-23.9385,2.6245-3.332,6.7918-5.0928,9.6835-4.0938,4.5945,1.5811,7.9563,9.5547,10.6578,15.9619.8173,1.9385,1.5234,3.6133,2.1534,4.834l.1765.3369c.315.5938.8865.5654,1.0543.5449.3472-.0469.7607-.2852.8797-.8115,1.2688-5.6719,2.1378-12.1387-3.6417-17.0859-10.0853-8.6328-11.7911-16.4238-11.2488-25.4658.3218-5.3789-1.6219-9.7109-3.3091-12.3984-1.6824-2.6768-3.2194-5.6494-4.5711-8.8359-10.1419-23.9189-8.4547-33.5039-5.2528-37.332,2.0296-2.4248,5.2938-3.2715,9.193-2.375,6.6524,1.5244,13.4383,7.4395,14.8174,12.916.8085,3.207.946,6.0215,1.067,8.5039.2409,4.9395.432,8.8408,5.7619,13.1113,10.5232,8.4336,11.6497,17.5,11.3844,22.1533-.0497.8711-.2399,1.8096-.4398,2.8037-.7978,3.9541-1.7916,8.875,4.5136,15.0986,7.3633,7.2676,9.1598,16.2236,5.4947,27.3789-3.0789,9.3701,3.1472,16.7607,5.8058,19.917.2204.2637.472.249.5686.2324.0927-.0166.3199-.084.4194-.3584,1.5166-4.1826,4.6696-5.9619,6.9098-6.9365,2.4733-1.0781,5.3767-6.29,7.5789-13.6016,1.4463-4.8047,7.3146-8.6953,11.9003-10.5664,4.8452-1.9795,9.2993-2.2998,11.9091-.8564,2.8059,1.5488,5.1846,5.4043,6.3627,10.3154,1.3644,5.6885.7539,11.1904-1.6346,14.7188-1.9213,2.8389-6.6933,5.5225-11.7453,8.3643-7.5955,4.2725-16.2032,9.1133-15.5264,14.9414,1.2308,10.6074-16.054,16.7012-16.7904,16.9551l-.1463.0508-.1521-.0205c-.0624-.0088-1.4268-.2051-2.9024-1.335-3.4925,2.0322-6.629,3.0488-9.2876,3.0488Zm-38.5936-46.9326c.8231.8291,9.3822,9.5537,11.481,15.5068.5657,1.6064.7432,3.2373.9324,4.9639.5218,4.7881,1.1147,10.2148,11.0655,16.4277,3.2135,2.0059,5.6976,3.0742,7.3848,3.1748l.3413.0195.1765.293c.5754.9531,1.1469,1.8125,1.698,2.5527,3.5266,4.7461,9.8483,2.4023,14.5277-.4014l.4038-.2412.355.3076c1.0474.9082,2.0842,1.2129,2.4528,1.2988,1.735-.6367,16.8167-6.4502,15.7644-15.5186-.7773-6.6875,8.2313-11.7549,16.1798-16.2246,4.9144-2.7646,9.5567-5.376,11.3064-7.96,2.1544-3.1836,2.7083-8.4277,1.4463-13.6865-1.0777-4.4932-3.2721-8.126-5.7258-9.4805-2.2373-1.2363-6.3725-.8818-10.7934.9209-5.602,2.2871-10.0824,6.2002-11.1474,9.7383-2.3787,7.9004-5.405,13.1553-8.3035,14.418-2.0208.8799-4.8618,2.4775-6.2067,6.1885-.2302.6338-.7597,1.0811-1.4171,1.1953-.669.1221-1.3303-.1289-1.7701-.6582-2.8127-3.3389-9.3656-11.1182-6.0604-21.1777,3.5442-10.7881,1.9008-19.0645-5.1729-26.0469-6.8055-6.7178-5.6898-12.2451-4.8754-16.2822.1912-.9473.3716-1.8418.4155-2.6201.2516-4.4033-.8309-12.9951-10.8987-21.0635-5.7863-4.6377-5.9999-9.0059-6.2466-14.0635-.119-2.4219-.2526-5.167-1.0289-8.249-1.2523-4.9717-7.7242-10.5635-13.8489-11.9678-2.406-.5498-5.7298-.6611-7.9075,1.9424-5.6634,6.7715.985,25.4561,5.4528,35.9902,1.3235,3.123,2.8293,6.0332,4.4736,8.6523,1.7887,2.8477,3.8494,7.4443,3.5061,13.168-.5179,8.6543,1.1196,16.1152,10.7973,24.3994,6.3276,5.416,5.4157,12.3164,4.064,18.3584-.2175.9717-.9919,1.6836-1.973,1.8154-.9792.1348-1.9106-.3496-2.3748-1.2256l-.1804-.3447c-.6544-1.2676-1.3703-2.9639-2.1983-4.9287-2.4626-5.8428-5.837-13.8447-9.8825-15.2383h0c-2.0422-.7041-5.6234.3447-8.243,3.6699-2.0237,2.5674-5.8692,9.8828,2.0305,22.377Z"></path><g><path class="cls-3" d="m49.8443,399.3003c15.8331,0,28.6685-12.8522,28.6685-28.7062v-15.7262H21.1758v15.7262c0,15.854,12.8353,28.7062,28.6684,28.7062Z"></path><path class="cls-2" d="m49.8443,400c-16.1931,0-29.3671-13.1915-29.3671-29.4059v-15.7262c0-.3864.3126-.6997.6989-.6997h57.3364c.3863,0,.6988.3133.6988.6997v15.7262c0,16.2144-13.1739,29.4059-29.367,29.4059Zm-27.9694-44.4324v15.0265c0,15.4428,12.5468,28.0065,27.9694,28.0065s27.9694-12.5637,27.9694-28.0065v-15.0265H21.875Z"></path></g></svg> 